<mxfile host="app.diagrams.net" modified="2023-11-04T17:52:25.459Z" agent="Mozilla/5.0 (Windows NT 10.0; Win64; x64) AppleWebKit/537.36 (KHTML, like Gecko) Chrome/119.0.0.0 Safari/537.36" version="22.0.8" etag="jsJeg3BMH6LGn4HnhHvC" type="github">
  <diagram name="PÃ¡gina-1" id="ZfqehuOKzOo0NI7QZMOS">
    <mxGraphModel>
      <root>
        <mxCell id="0" />
        <mxCell id="1" parent="0" />
      </root>
    </mxGraphModel>
  </diagram>
</mxfile>
